<svg xmlns="http://www.w3.org/2000/svg" width="2000" height="2000" viewBox="0 0 2000 2000">
  <defs>
    <style>
      .cls-1 {
        fill: #2c2924;
        stroke: #000;
        stroke-width: 1px;
        fill-rule: evenodd;
      }
    </style>
  </defs>
  <path class="cls-1" d="M250,1059c0.066-1.32-24.51-72.82-2-138,20-57.922,98.808-111.509,123-91,67.2,56.97,12.034,121.672,7,254-2.291,60.21,4.452,175.92,74,268,93.784,124.16,259.051,148.6,409,66-102.816,54.33-338.255,35.49-400.853-142.88C421.961,1171.53,445.664,990.317,470,957c44.286-22.053,152.812-8.012,199,4s282.7,82.73,335,39c-32.814,12.93-125.838-5.222-221-33C635.539,923.956,475.351,860.857,454,833c-33.929-44.268-118.372-180.044-280,118C231.855,998.508,249.875,1061.5,250,1059ZM823,255s-110.675,95.051-25,273c107.893,224.1,10.912,316.3,10,316,0,0,133.746-109.667,29-310C733.8,373.027,823,255,823,255ZM712,334s-79.689,51.707,7,205,57,220,57,220,37.735-93.527-36-225C647.569,402.862,712,334,712,334ZM651,523s-113.149,15.435-8,149c101.525,128.961,36,152,36,152s90.971-32.181-20-168C564.589,540.449,651,523,651,523ZM991,661s-26.681,102.839-95,171c22.2-18.226,38.727-25.954,66-67C987.686,726.342,991,661,991,661Zm-84,520s130.06-94.71,141,57c11.47,159.06-103.358,179.63-150,162-47.533-17.96-116.639-65.34-22.188-192C822.6,1310.72,842.059,1365.26,902,1379c50.33,11.53,133.1-31.38,129-161C1027.55,1108.68,907,1181,907,1181Zm95-22s-89.033,5.95-61,112c23.1,87.39-36,108-36,108s23.613,7.97,56-10c11.726-6.51,7.516-45.33-17-117C927.322,1169.66,1002,1159,1002,1159Zm273-306c0,0.008-174.87-39.709-112,223-4.58,6.8-21.11,25.09-21,40s23.38,29.68,18,50,16-47,16-47,101.3,252.89-59,328c69.66-41.46,168.31,57.44,83-364,25.19-36.14,73.18-63.81,126-53-34.82-13.34-33.37-24.42-55-25s-81,40-81,40-39.9-188.245,116-121C1278.46,902.49,1275,853,1275,853Zm202.4-1.715c0,0.008-174.87-39.71-112,223-4.58,6.81-21.11,25.09-21,40s23.39,29.68,18,50,16-47,16-47,101.3,252.89-59,328c69.66-41.45,168.31,57.45,83-364,25.19-36.14,73.18-63.81,126-53-34.82-13.34-33.37-24.42-55-25s-81,40-81,40-39.9-188.241,116-120.995C1480.86,900.775,1477.4,851.285,1477.4,851.285ZM1606,1347c58.12-38.95,73.89-133.25,47-136-37.38-3.82-75.79,25.31-105,85-37.06,75.73-7.25,167.89,83,138,15.27-5.06,32,8,32,8-21.91-25.15-48.81-13.65-67-18C1557.2,1414.72,1552.57,1382.81,1606,1347Zm-49-1c15.4,4.21,46.1-11.08,65-54,18.6-42.24,12.86-49.83,7-51C1617.49,1238.7,1576.55,1271.75,1557,1346Zm219.28,5.74c58.12-38.95,73.89-133.25,47-136-37.38-3.81-75.79,25.32-105,85-37.06,75.74-7.25,167.89,83,138,15.27-5.05,32,8,32,8-21.91-25.15-48.81-13.64-67-18C1727.48,1419.47,1722.85,1387.56,1776.28,1351.74Zm-49-1c15.4,4.21,46.1-11.07,65-54,18.6-42.24,12.86-49.83,7-51C1787.77,1243.45,1746.83,1276.49,1727.28,1350.74Z"/>
</svg>
